<?xml version="1.0" standalone="no"?>
<!DOCTYPE svg PUBLIC "-//W3C//DTD SVG 20010904//EN"
 "http://www.w3.org/TR/2001/REC-SVG-20010904/DTD/svg10.dtd">
<svg version="1.0" xmlns="http://www.w3.org/2000/svg"
 width="238.000000pt" height="233.000000pt" viewBox="0 0 238.000000 233.000000"
 preserveAspectRatio="xMidYMid meet">

<g transform="translate(0.000000,233.000000) scale(0.100000,-0.100000)"
fill="#000000" stroke="none">
<path d="M1082 1763 l-23 -16 31 -18 c16 -10 30 -23 30 -29 0 -16 13 -11 50
20 33 29 33 30 15 45 -26 19 -74 18 -103 -2z"/>
<path d="M844 1656 c-19 -19 -34 -42 -34 -52 0 -16 7 -19 50 -16 46 4 49 6 44
26 -3 12 0 34 5 49 9 24 8 27 -10 27 -12 0 -36 -15 -55 -34z"/>
<path d="M1354 1674 c3 -9 6 -31 6 -49 0 -32 1 -33 48 -37 26 -3 49 -3 51 -2
2 2 -2 18 -9 35 -19 45 -113 98 -96 53z"/>
<path d="M1235 1555 c-5 -2 -22 -6 -37 -9 -42 -9 -60 -33 -53 -70 7 -31 7 -31
-10 -8 -9 12 -15 35 -13 50 l3 27 -67 -1 c-56 0 -73 -5 -107 -29 -45 -31 -86
-104 -95 -170 -5 -36 -4 -37 5 -12 17 43 29 32 29 -25 0 -29 5 -70 11 -90 10
-37 11 -38 59 -38 44 0 50 3 50 21 0 24 52 79 75 79 37 0 74 -30 81 -66 l6
-35 52 3 51 3 10 65 c6 36 14 64 18 63 4 -2 11 -3 15 -3 5 0 18 -18 30 -39 23
-40 39 -51 73 -51 27 0 24 25 -6 38 -27 12 -33 28 -12 35 6 2 -4 7 -23 11 -48
9 -82 37 -70 56 8 12 13 11 33 -8 13 -12 26 -22 30 -22 4 0 7 35 7 79 0 64 -4
83 -20 104 -25 31 -91 53 -125 42z m113 -126 c-2 -6 -8 -10 -13 -10 -5 0 -11
4 -13 10 -2 6 4 11 13 11 9 0 15 -5 13 -11z"/>
<path d="M1510 1431 c0 -5 -11 -23 -25 -39 -17 -20 -22 -33 -14 -37 6 -4 19
-21 29 -37 l18 -30 17 32 c14 28 15 40 6 71 -11 36 -31 62 -31 40z"/>
<path d="M730 1411 c-13 -26 -13 -64 2 -96 12 -27 28 -34 28 -12 0 8 11 24 25
37 l25 23 -25 23 c-14 13 -25 28 -25 34 0 17 -19 11 -30 -9z"/>
<path d="M1408 1142 c-47 -3 -48 -4 -48 -37 0 -18 -3 -40 -6 -49 -9 -23 27
-21 58 4 23 17 56 77 47 83 -2 1 -25 1 -51 -1z"/>
<path d="M810 1124 c0 -20 63 -84 83 -84 12 0 15 12 14 50 l-2 50 -47 0 c-37
0 -48 -4 -48 -16z"/>
<path d="M1100 1008 c-34 -28 -34 -30 -16 -44 24 -17 56 -18 91 -2 31 14 31
17 -8 49 l-32 27 -35 -30z"/>
<path d="M927 820 c-41 -35 -51 -74 -31 -114 18 -38 18 -43 -6 -51 -23 -7 -50
-53 -50 -85 0 -34 44 -70 85 -70 41 0 95 44 95 77 -1 16 -2 16 -12 -2 -28 -52
-82 -69 -111 -37 -40 43 -3 122 56 122 15 0 27 5 27 10 0 6 -6 10 -13 10 -21
0 -47 34 -47 61 0 62 73 121 107 86 14 -14 14 -19 -5 -51 -21 -35 -21 -36 -2
-36 34 0 55 71 28 98 -23 23 -85 14 -121 -18z"/>
<path d="M1101 768 c-7 -35 -19 -85 -27 -112 -8 -27 -14 -61 -14 -75 1 -51 27
5 54 118 30 124 31 131 12 131 -9 0 -18 -22 -25 -62z"/>
<path d="M1177 723 c-32 -134 -34 -147 -22 -151 5 -2 22 43 37 99 41 153 42
159 25 159 -10 0 -22 -32 -40 -107z"/>
<path d="M1240 657 c-7 -29 -11 -62 -9 -72 5 -24 44 -32 66 -13 18 14 19 23
-8 -99 -7 -34 -10 -66 -5 -70 11 -12 24 17 32 71 3 27 17 88 30 135 28 102 28
101 9 101 -9 0 -15 -9 -15 -23 0 -27 -54 -107 -71 -107 -12 0 -8 60 7 108 5
16 2 22 -9 22 -11 0 -19 -17 -27 -53z"/>
</g>
</svg>
